<svg id="레이어_1" data-name="레이어 1" xmlns="http://www.w3.org/2000/svg" viewBox="0 0 342.73 62.12"><defs><style>.cls-1{fill:#ffe600;}.cls-2,.cls-3{isolation:isolate;}.cls-3{font-size:15px;font-family:TTTogether-KSCpc-EUC-H, TTTogether;}.cls-3,.cls-4{fill:#2b1718;}</style></defs><rect id="사각형_54-2" data-name="사각형 54-2" class="cls-1" x="6.36" y="6.56" width="330" height="49" rx="5"/><g id="그룹_31" data-name="그룹 31"><g id="카카오톡으로_로그인" data-name="카카오톡으로 로그인" class="cls-2"><text class="cls-3" transform="translate(126.36 35.85)">카카오톡으로 로그인</text></g><path id="패스_23" data-name="패스 23" class="cls-4" d="M95.12,21.55c-5.94,0-10.76,3.8-10.76,8.5,0,3,2,5.66,5,7.17l-1,3.78a.3.3,0,0,0,.08.32.28.28,0,0,0,.22.09.24.24,0,0,0,.18-.07l4.36-2.94a14,14,0,0,0,1.94.14c5.93,0,10.75-3.8,10.75-8.49s-4.82-8.5-10.75-8.5"/></g></svg>