<svg id="레이어_1" data-name="레이어 1" xmlns="http://www.w3.org/2000/svg" viewBox="0 0 14 18.67"><defs><style>.cls-1{fill:#fff;}</style></defs><g id="그룹_87" data-name="그룹 87"><path id="패스_37" data-name="패스 37" class="cls-1" d="M12.83,18.67A1.17,1.17,0,0,0,14,17.5V1.17A1.17,1.17,0,0,0,12.83,0H5.25A2.23,2.23,0,0,0,3.84.58L.58,3.84A2.23,2.23,0,0,0,0,5.25V17.5a1.17,1.17,0,0,0,1.17,1.17Zm0-17.5V17.5H1.17V5.25H4.08A1.17,1.17,0,0,0,5.25,4.08V1.17ZM4.08,2V4.08H2Z"/><path id="패스_38" data-name="패스 38" class="cls-1" d="M7,4.67h3.5a.59.59,0,0,0,0-1.17H7A.59.59,0,0,0,7,4.67Z"/><path id="패스_39" data-name="패스 39" class="cls-1" d="M10.5,6.42h-7a.58.58,0,0,0,0,1.16h7a.58.58,0,0,0,0-1.16Z"/><path id="패스_40" data-name="패스 40" class="cls-1" d="M10.5,9.33h-7a.59.59,0,0,0,0,1.17h7a.59.59,0,0,0,0-1.17Z"/><path id="패스_41" data-name="패스 41" class="cls-1" d="M10.5,12.25h-7a.59.59,0,0,0,0,1.17h7a.59.59,0,0,0,0-1.17Z"/><path id="패스_42" data-name="패스 42" class="cls-1" d="M10.5,15.17h-7a.58.58,0,1,0,0,1.16h7a.58.58,0,0,0,0-1.16Z"/></g></svg>