<svg id="레이어_1" data-name="레이어 1" xmlns="http://www.w3.org/2000/svg" viewBox="0 0 52.33 49.08"><defs><style>.cls-1{fill:#fff;}</style></defs><g id="그룹_87" data-name="그룹 87"><path id="패스_37" data-name="패스 37" class="cls-1" d="M32,33.87a1.18,1.18,0,0,0,1.17-1.16V16.37A1.18,1.18,0,0,0,32,15.21H24.42a2.16,2.16,0,0,0-1.41.58l-3.26,3.26a2.16,2.16,0,0,0-.58,1.41V32.71a1.16,1.16,0,0,0,1.16,1.16Zm0-17.5V32.71H20.33V20.46h2.92a1.18,1.18,0,0,0,1.17-1.17V16.37Zm-8.75.83v2.09H21.16Z"/><path id="패스_38" data-name="패스 38" class="cls-1" d="M26.17,19.87h3.5a.58.58,0,0,0,0-1.16h-3.5a.58.58,0,1,0,0,1.16Z"/><path id="패스_39" data-name="패스 39" class="cls-1" d="M29.67,21.62h-7a.59.59,0,0,0-.59.59.58.58,0,0,0,.59.58h7a.58.58,0,0,0,.58-.58A.59.59,0,0,0,29.67,21.62Z"/><path id="패스_40" data-name="패스 40" class="cls-1" d="M29.67,24.54h-7a.59.59,0,1,0,0,1.17h7a.59.59,0,0,0,0-1.17Z"/><path id="패스_41" data-name="패스 41" class="cls-1" d="M29.67,27.46h-7a.58.58,0,1,0,0,1.16h7a.58.58,0,0,0,0-1.16Z"/><path id="패스_42" data-name="패스 42" class="cls-1" d="M29.67,30.37h-7a.59.59,0,0,0-.59.59.58.58,0,0,0,.59.58h7a.58.58,0,0,0,.58-.58A.59.59,0,0,0,29.67,30.37Z"/></g></svg>