<svg id="레이어_1" data-name="레이어 1" xmlns="http://www.w3.org/2000/svg" viewBox="0 0 24.89 23.01"><defs><style>.cls-1{fill:none;}.cls-2{fill:#707070;}</style></defs><g id="합치기_1" data-name="합치기 1"><path class="cls-1" d="M18.39,20.72a11.51,11.51,0,1,1,3.94-5.33l2.56,6.25Z"/><path class="cls-2" d="M23.31,20.41l-1.9-4.65-.15-.35.13-.36A10.5,10.5,0,0,0,3.24,5a11.51,11.51,0,0,0-.83,1.23A10.5,10.5,0,0,0,17.79,19.92l.33-.25.41.06,4.78.68m1.58,1.23-6.5-.92a11.51,11.51,0,0,1-16.85-15,12.6,12.6,0,0,1,.91-1.34,11.5,11.5,0,0,1,19.88,11Z"/></g></svg>