<svg id="레이어_1" data-name="레이어 1" xmlns="http://www.w3.org/2000/svg" viewBox="0 0 52.33 49.08"><defs><style>.cls-1{fill:none;}.cls-2{fill:#707070;}</style></defs><g id="합치기_1" data-name="합치기 1"><path class="cls-1" d="M32.11,33.76a11.52,11.52,0,1,1,3.94-5.34l2.56,6.25Z"/><path class="cls-2" d="M37,33.44l-1.9-4.64L35,28.44l.13-.36A10.5,10.5,0,0,0,17,18.06a11.51,11.51,0,0,0-.83,1.23A10.51,10.51,0,0,0,31.51,33l.33-.25.41.06,4.78.67m1.58,1.23-6.5-.91a11.51,11.51,0,0,1-16.85-15,11.79,11.79,0,0,1,.91-1.35,11.5,11.5,0,0,1,19.88,11Z"/></g></svg>