<svg id="레이어_1" data-name="레이어 1" xmlns="http://www.w3.org/2000/svg" viewBox="0 0 173.82 167.64"><defs><style>.cls-1{fill:#f4f4f4;}.cls-2{fill:#2b61e1;}.cls-3,.cls-4,.cls-6{isolation:isolate;}.cls-4,.cls-6{font-size:15px;font-family:TTTogether-KSCpc-EUC-H, TTTogether;}.cls-4,.cls-5{fill:#89acff;}.cls-6,.cls-7{fill:#fff;}</style></defs><rect id="사각형_131-2" data-name="사각형 131-2" class="cls-1" x="9.41" y="9.82" width="155" height="148" rx="5"/><rect id="사각형_132" data-name="사각형 132" class="cls-2" x="19.41" y="111.82" width="135" height="36" rx="5"/><g id="내가_쓴_글" data-name="내가 쓴 글" class="cls-3"><text class="cls-4" transform="translate(64.41 86.82)">내가 쓴 글</text></g><g id="프로필_설정" data-name="프로필 설정" class="cls-3"><text class="cls-4" transform="translate(64.41 40.82)">프로필 설정</text></g><g id="그룹_82" data-name="그룹 82"><circle id="타원_24" data-name="타원 24" class="cls-5" cx="42.33" cy="32.21" r="3.65"/><g id="그룹_74" data-name="그룹 74"><path id="패스_29" data-name="패스 29" class="cls-5" d="M42.33,37a7.13,7.13,0,0,0-6.87,5.22,1.5,1.5,0,0,0,1,1.85,1.4,1.4,0,0,0,.41.06H47.84a1.44,1.44,0,0,0,1.44-1.42,1.27,1.27,0,0,0,0-.34A7.13,7.13,0,0,0,42.33,37Z"/></g></g><g id="그룹_85" data-name="그룹 85"><g id="좋아요" class="cls-3"><text class="cls-6" transform="translate(64.41 134.82)">좋아요</text></g><g id="Icon"><path id="패스_1" data-name="패스 1" class="cls-7" d="M35,129.61l6.69,7.5a.27.27,0,0,0,.39,0l0,0,6.69-7.5-.27.32a3.6,3.6,0,0,0,.88-2.38,3.8,3.8,0,0,0-7.43-1h-.16a3.8,3.8,0,0,0-7.43,1,3.65,3.65,0,0,0,.88,2.38"/></g></g><g id="그룹_89" data-name="그룹 89"><path id="패스_37" data-name="패스 37" class="cls-5" d="M48.18,91.49a1.18,1.18,0,0,0,1.17-1.17V74a1.17,1.17,0,0,0-1.17-1.17H40.6a2.21,2.21,0,0,0-1.41.58l-3.26,3.26a2.2,2.2,0,0,0-.58,1.41V90.32a1.17,1.17,0,0,0,1.16,1.17Zm0-17.5V90.32H36.51V78.07h2.92A1.17,1.17,0,0,0,40.6,76.9V74Zm-8.75.82V76.9H37.34Z"/><path id="패스_38" data-name="패스 38" class="cls-5" d="M42.35,77.49h3.5a.59.59,0,0,0,0-1.17h-3.5a.59.59,0,1,0,0,1.17Z"/><path id="패스_39" data-name="패스 39" class="cls-5" d="M45.85,79.24h-7a.58.58,0,1,0,0,1.16h7a.58.58,0,0,0,0-1.16Z"/><path id="패스_40" data-name="패스 40" class="cls-5" d="M45.85,82.15h-7a.59.59,0,1,0,0,1.17h7a.59.59,0,0,0,0-1.17Z"/><path id="패스_41" data-name="패스 41" class="cls-5" d="M45.85,85.07h-7a.59.59,0,1,0,0,1.17h7a.59.59,0,0,0,0-1.17Z"/><path id="패스_42" data-name="패스 42" class="cls-5" d="M45.85,88h-7a.58.58,0,1,0,0,1.16h7a.58.58,0,0,0,0-1.16Z"/></g></svg>