<svg id="레이어_1" data-name="레이어 1" xmlns="http://www.w3.org/2000/svg" viewBox="0 0 94.41 38.69"><defs><style>.cls-1{fill:#e0e0e0;}.cls-2,.cls-4{fill:#fff;}.cls-3,.cls-4{isolation:isolate;}.cls-4{font-size:12px;font-family:AppleSDGothicNeo-Regular-KSCpc-EUC-H, Apple SD Gothic Neo;}</style></defs><rect id="사각형_140" data-name="사각형 140" class="cls-1" x="25.21" y="10.34" width="44" height="18" rx="5"/><g id="그룹_95" data-name="그룹 95"><g id="그룹_94" data-name="그룹 94"><g id="그룹_86" data-name="그룹 86"><path id="패스_36" data-name="패스 36" class="cls-2" d="M29.6,24.1a.59.59,0,0,0,.22-.05l2.18-1a2.07,2.07,0,0,0,.58-.4l5.94-5.93a.62.62,0,0,0,0-.86L37.43,14.8a.6.6,0,0,0-.86,0l-6.09,6.09a2,2,0,0,0-.4.59l-.83,2a.46.46,0,0,0,0,.44A.38.38,0,0,0,29.6,24.1Zm2.55-1.84h0l-1.09-1.09,5-5,1.09,1.08Zm4.85-7,1.09,1.09-.48.48-1.09-1.09Zm-6.35,6.49,0-.08.94.95L30,23.31Z"/></g><g id="EDIT" class="cls-3"><text class="cls-4" transform="translate(41.21 24.34)">EDIT</text></g></g></g></svg>